<?xml version="1.0" encoding="UTF-8" standalone="no"?>
<!-- Created with Inkscape (http://www.inkscape.org/) -->

<svg
   viewBox="0 0 79.375 79.375"
   version="1.1"
   id="svg1"
   xmlns="http://www.w3.org/2000/svg"
   xmlns:svg="http://www.w3.org/2000/svg">
  <defs
     id="defs1" />
  <g
     id="layer1"
     transform="translate(3.1288197e-5)">
    <path
       id="path110"
       style="display:inline;fill:#000000;stroke:none;stroke-width:39.3728;stroke-linecap:round;stroke-linejoin:bevel;stroke-miterlimit:10;stroke-dasharray:none;paint-order:stroke fill markers"
       d="M 39.687468,0 A 39.687744,39.687744 0 0 0 -3.12882e-5,39.6875 39.687744,39.687744 0 0 0 39.687468,79.374999 39.687744,39.687744 0 0 0 79.374969,39.6875 39.687744,39.687744 0 0 0 39.687468,0 Z M 55.49131,13.256953 a 1.5120179,1.5120179 0 0 1 1.133229,0.230645 l 6.361723,4.241911 a 1.5120179,1.5120179 0 0 1 0.416648,2.097526 C 54.751015,32.800485 47.031346,46.340154 40.027473,60.323331 l -2.500746,4.98892 A 1.5120179,1.5120179 0 0 1 35.05491,65.654469 L 31.304863,61.513774 C 27.469957,57.280864 19.504072,51.131929 16.573177,49.717483 a 1.5120179,1.5120179 0 0 1 -0.706865,-2.020169 l 3.326755,-6.8863 a 1.5120179,1.5120179 0 0 1 2.019383,-0.699366 c 4.031265,1.945667 8.503821,5.552926 12.634159,9.330474 6.314079,-12.142295 13.042664,-24.077089 20.680404,-35.529661 a 1.5120179,1.5120179 0 0 1 0.965083,-0.647365 z" />
  </g>
</svg>
