<?xml version="1.0" encoding="UTF-8" standalone="no"?>
<!-- Created with Inkscape (http://www.inkscape.org/) -->

<svg
   viewBox="0 0 79.375 79.375"
   version="1.1"
   id="svg1"
   xmlns="http://www.w3.org/2000/svg"
   xmlns:svg="http://www.w3.org/2000/svg">
  <defs
     id="defs1" />
  <g
     id="layer1">
    <path
       id="rect48"
       style="fill:#000000;stroke-width:55.9;stroke-linecap:round;paint-order:stroke fill markers;stop-color:#000000"
       d="m 12.512402,2.92125e-4 c -1.428915,0 -2.8577189,0.547158005 -3.9526279,1.642057975 l -6.917411,6.917357 c -2.18981697,2.1897999 -2.18981797,5.7160149 0,7.9058149 L 24.864522,39.687499 1.6423631,62.90948 c -2.18981397,2.18979 -2.18981697,5.71601 10e-7,7.90581 l 6.916786,6.91736 c 2.1898179,2.1898 5.7160619,2.1898 7.9058769,0 L 39.68719,54.51067 62.909968,77.73265 c 2.189817,2.1898 5.71544,2.1898 7.905258,0 l 6.917409,-6.91736 c 2.189819,-2.1898 2.189819,-5.71601 0,-7.90581 L 54.510477,39.687499 77.732636,16.465522 c 2.189818,-2.1898 2.189819,-5.716015 0,-7.9058159 l -6.91741,-6.917357 c -2.189817,-2.18979897 -5.71606,-2.18979897 -7.905877,1e-6 L 39.68719,24.864328 16.46503,1.6423501 C 15.370121,0.54745013 13.941317,2.92125e-4 12.512402,2.92125e-4 Z" />
  </g>
</svg>
