<?xml version="1.0" encoding="UTF-8" standalone="no"?>
<!-- Created with Inkscape (http://www.inkscape.org/) -->

<svg
   viewBox="0 0 79.375008 79.375"
   version="1.1"
   id="svg1"
   xmlns="http://www.w3.org/2000/svg"
   xmlns:svg="http://www.w3.org/2000/svg">
  <defs
     id="defs1" />
  <g
     id="layer1">
    <g
       id="g47"
       style="display:inline"
       transform="matrix(1.0000126,0,0,1.0000126,-2.2656535e-5,-3.1641024e-5)">
      <rect
         style="opacity:0;fill:#ffffff;stroke-width:7.85621;stroke-linecap:round;stroke-linejoin:round;paint-order:stroke fill markers"
         id="rect47"
         width="79.374001"
         height="79.374001"
         x="2.265625e-05"
         y="3.1640626e-05" />
      <path
         id="path8"
         style="color:#000000;fill:#000000;stroke:none;stroke-width:7.21194;stroke-linecap:square;stroke-linejoin:round;stroke-miterlimit:10;-inkscape-stroke:none;paint-order:fill markers stroke"
         d="m 39.6871,3.6272 c -1.1624,-1e-4 -2.2365,0.6423 -2.8179,1.6852 L 0.4405,70.6903 c -1.2517,2.2474 0.3133,5.056 2.8174,5.0566 H 76.116 c 2.5043,0 4.0693,-2.8092 2.8175,-5.0566 L 42.5046,5.3124 C 41.9233,4.2696 40.8493,3.6272 39.6871,3.6272 Z m -2.2419,17.6045 h 4.4831 c 1.9346,2e-4 3.4571,1.6513 3.3008,3.5796 L 42.988,52.41 c -0.1417,1.7178 -1.5772,3.0399 -3.3009,3.0399 -1.7237,0 -3.1592,-1.3221 -3.3009,-3.0399 L 34.1444,24.8113 c -0.1564,-1.9283 1.3663,-3.5794 3.3008,-3.5796 z m 2.2418,36.281 c 2.9091,0 5.2674,2.3583 5.2674,5.2674 0,2.9091 -2.3582,5.2675 -5.2674,5.2675 -2.9092,0 -5.2676,-2.3583 -5.2675,-5.2675 0,-2.9091 2.3583,-5.2674 5.2675,-5.2674 z" />
    </g>
  </g>
</svg>
